<?xml version="1.0" encoding="UTF-8" standalone="no" ?>
<!DOCTYPE svg PUBLIC "-//W3C//DTD SVG 1.1//EN" "http://www.w3.org/Graphics/SVG/1.1/DTD/svg11.dtd">
<svg width="191mm" xmlns="http://www.w3.org/2000/svg" height="143mm" version="1.1" viewBox="0 0 723 543" xmlns:xlink="http://www.w3.org/1999/xlink">
   <polyline fill="none" points="266,179 312,179 312,123 377,123" stroke="#0080ff" stroke-width="1"/>
   <polygon fill="#0080ff" points="266,179 275,175 285,179 275,184" stroke="#0080ff" stroke-width="1" stroke-linejoin="miter"/>
   <polyline fill="none" points="364,127 377,123 364,119" stroke="#0080ff" stroke-width="1"/>
   <text x="294" y="176" fill="#000000" font-size="10" font-family="'Arial Unicode MS','Arial'" text-anchor="middle">0..*</text>
   <text x="332" y="95" fill="#000000" font-size="10" font-family="'Arial Unicode MS','Arial'" text-anchor="middle">0..*</text>
   <text x="332" y="105" fill="#000000" font-size="10" font-family="'Arial Unicode MS','Arial'" text-anchor="middle">favorite places </text>
   <text x="332" y="115" fill="#000000" font-size="10" font-family="'Arial Unicode MS','Arial'" text-anchor="middle">(max 3)</text>
   <polyline fill="none" points="625,259 542,259" stroke="#0080ff" stroke-width="1"/>
   <polygon fill="#0080ff" points="625,259 615,263 606,259 615,254" stroke="#0080ff" stroke-width="1" stroke-linejoin="miter"/>
   <text x="600" y="275" fill="#000000" font-size="10" font-family="'Arial Unicode MS','Arial'" text-anchor="middle">0..1</text>
   <text x="560" y="253" fill="#000000" font-size="10" font-family="'Arial Unicode MS','Arial'" text-anchor="middle">0..*</text>
   <polyline fill="none" points="448,232 448,189 448,189 448,162" stroke="#0080ff" stroke-width="1"/>
   <polygon fill="#0080ff" points="448,232 444,223 448,213 453,223" stroke="#0080ff" stroke-width="1" stroke-linejoin="miter"/>
   <polyline fill="none" points="452,176 448,162 444,176" stroke="#0080ff" stroke-width="1"/>
   <text x="435" y="213" fill="#000000" font-size="10" font-family="'Arial Unicode MS','Arial'" text-anchor="middle">0..1</text>
   <text x="460" y="188" fill="#000000" font-size="10" font-family="'Arial Unicode MS','Arial'" text-anchor="middle">0..1</text>
   <polyline fill="none" points="223,221 223,253 227,253 227,281" stroke="#0080ff" stroke-width="1"/>
   <polygon fill="#0080ff" points="223,221 227,230 223,240 218,230" stroke="#0080ff" stroke-width="1" stroke-linejoin="miter"/>
   <polyline fill="none" points="221,269 227,281 229,268" stroke="#0080ff" stroke-width="1"/>
   <text x="203" y="238" fill="#000000" font-size="10" font-family="'Arial Unicode MS','Arial'" text-anchor="middle">0..1</text>
   <text x="242" y="268" fill="#000000" font-size="10" font-family="'Arial Unicode MS','Arial'" text-anchor="middle">0..1</text>
   <polyline fill="none" points="267,281 267,253 385,253" stroke="#0080ff" stroke-width="1"/>
   <polygon fill="#0080ff" points="273,281 270,271 277,263 280,273" stroke="#0080ff" stroke-width="1" stroke-linejoin="miter"/>
   <polyline fill="none" points="372,257 385,253 372,249" stroke="#0080ff" stroke-width="1"/>
   <text x="298" y="274" fill="#000000" font-size="10" font-family="'Arial Unicode MS','Arial'" text-anchor="middle">0..1</text>
   <text x="369" y="271" fill="#000000" font-size="10" font-family="'Arial Unicode MS','Arial'" text-anchor="middle">0..1</text>
   <polyline fill="none" points="288,31 232,31 232,132" stroke="#0080ff" stroke-width="1"/>
   <polygon fill="#0080ff" points="288,31 278,36 269,31 278,27" stroke="#0080ff" stroke-width="1" stroke-linejoin="miter"/>
   <polyline fill="none" points="228,119 232,132 236,119" stroke="#0080ff" stroke-width="1"/>
   <text x="268" y="48" fill="#000000" font-size="10" font-family="'Arial Unicode MS','Arial'" text-anchor="middle">0..1</text>
   <text x="219" y="113" fill="#000000" font-size="10" font-family="'Arial Unicode MS','Arial'" text-anchor="middle">0..*</text>
   <polyline fill="none" points="514,232 514,29 352,29" stroke="#0080ff" stroke-width="1"/>
   <polygon fill="#0080ff" points="352,29 361,25 370,29 361,34" stroke="#0080ff" stroke-width="1" stroke-linejoin="miter"/>
   <polyline fill="none" points="510,219 514,232 518,219" stroke="#0080ff" stroke-width="1"/>
   <text x="371" y="46" fill="#000000" font-size="10" font-family="'Arial Unicode MS','Arial'" text-anchor="middle">0..1</text>
   <text x="501" y="213" fill="#000000" font-size="10" font-family="'Arial Unicode MS','Arial'" text-anchor="middle">0..*</text>
   <polyline fill="none" points="123,221 123,368 375,368" stroke="#0080ff" stroke-width="1"/>
   <polygon fill="#0080ff" points="123,221 128,230 123,240 118,230" stroke="#0080ff" stroke-width="1" stroke-linejoin="miter"/>
   <polyline fill="none" points="361,372 375,368 361,364" stroke="#0080ff" stroke-width="1"/>
   <text x="136" y="247" fill="#000000" font-size="10" font-family="'Arial Unicode MS','Arial'" text-anchor="middle">0..1</text>
   <text x="258" y="366" fill="#000000" font-size="10" font-family="'Arial Unicode MS','Arial'" text-anchor="middle">0..*</text>
   <text x="258" y="376" fill="#000000" font-size="10" font-family="'Arial Unicode MS','Arial'" text-anchor="middle">paidParkingPlacesForFavoritePlaces</text>
   <polyline fill="none" points="454,351 454,317 454,317 454,283" stroke="#0080ff" stroke-width="1"/>
   <polygon fill="#0080ff" points="454,351 450,342 454,332 459,342" stroke="#0080ff" stroke-width="1" stroke-linejoin="miter"/>
   <polyline fill="none" points="458,296 454,283 450,296" stroke="#0080ff" stroke-width="1"/>
   <text x="440" y="338" fill="#000000" font-size="10" font-family="'Arial Unicode MS','Arial'" text-anchor="middle">0..*</text>
   <text x="470" y="302" fill="#000000" font-size="10" font-family="'Arial Unicode MS','Arial'" text-anchor="middle">0..1</text>
   <polyline fill="none" points="651,278 651,346" stroke="#0080ff" stroke-width="1"/>
   <polygon fill="#0080ff" points="651,278 655,288 651,297 646,288" stroke="#0080ff" stroke-width="1" stroke-linejoin="miter"/>
   <polyline fill="none" points="647,333 651,346 655,333" stroke="#0080ff" stroke-width="1"/>
   <text x="668" y="299" fill="#000000" font-size="10" font-family="'Arial Unicode MS','Arial'" text-anchor="middle">0..1</text>
   <text x="636" y="336" fill="#000000" font-size="10" font-family="'Arial Unicode MS','Arial'" text-anchor="middle">0..*</text>
   <polyline fill="none" points="85,221 85,405 375,405" stroke="#0080ff" stroke-width="1"/>
   <polygon fill="#0080ff" points="85,221 90,230 85,240 81,230" stroke="#0080ff" stroke-width="1" stroke-linejoin="miter"/>
   <polyline fill="none" points="361,409 375,405 361,401" stroke="#0080ff" stroke-width="1"/>
   <text x="98" y="246" fill="#000000" font-size="10" font-family="'Arial Unicode MS','Arial'" text-anchor="middle">0..1</text>
   <text x="285" y="403" fill="#000000" font-size="10" font-family="'Arial Unicode MS','Arial'" text-anchor="middle">0..1</text>
   <text x="285" y="413" fill="#000000" font-size="10" font-family="'Arial Unicode MS','Arial'" text-anchor="middle">regularPaidParkingPlace</text>
   <polyline fill="none" points="55,221 55,480 99,480" stroke="#0080ff" stroke-width="1"/>
   <polygon fill="#0080ff" points="55,221 60,230 55,240 50,230" stroke="#0080ff" stroke-width="1" stroke-linejoin="miter"/>
   <polyline fill="none" points="86,484 99,480 86,476" stroke="#0080ff" stroke-width="1"/>
   <text x="67" y="246" fill="#000000" font-size="10" font-family="'Arial Unicode MS','Arial'" text-anchor="middle">0..*</text>
   <text x="71" y="489" fill="#000000" font-size="10" font-family="'Arial Unicode MS','Arial'" text-anchor="middle">0..*</text>
   <polyline fill="none" points="20,221 20,509 99,509" stroke="#0080ff" stroke-width="1"/>
   <polygon fill="#0080ff" points="20,221 25,230 20,240 15,230" stroke="#0080ff" stroke-width="1" stroke-linejoin="miter"/>
   <polyline fill="none" points="86,513 99,509 86,505" stroke="#0080ff" stroke-width="1"/>
   <text x="33" y="246" fill="#000000" font-size="10" font-family="'Arial Unicode MS','Arial'" text-anchor="middle">0..1</text>
   <text x="48" y="520" fill="#000000" font-size="10" font-family="'Arial Unicode MS','Arial'" text-anchor="middle">0..1</text>
   <text x="48" y="530" fill="#000000" font-size="10" font-family="'Arial Unicode MS','Arial'" text-anchor="middle">activePunishment</text>
   <polyline fill="none" points="122,132 122,66" stroke="#0080ff" stroke-width="1"/>
   <polygon fill="#0080ff" points="122,132 118,123 122,114 127,123" stroke="#0080ff" stroke-width="1" stroke-linejoin="miter"/>
   <polyline fill="none" points="126,79 122,66 118,79" stroke="#0080ff" stroke-width="1"/>
   <text x="108" y="113" fill="#000000" font-size="10" font-family="'Arial Unicode MS','Arial'" text-anchor="middle">0..1</text>
   <text x="134" y="91" fill="#000000" font-size="10" font-family="'Arial Unicode MS','Arial'" text-anchor="middle">0..*</text>
   <defs>
      <linearGradient id="Gradient1" x1="0%" x2="100%" y1="0%" y2="100%" gradientUnits="objectBoundingBox">
         <stop offset="5%" stop-color="#ffffff"/>
         <stop offset="95%" stop-color="#aee4ff"/>
      </linearGradient>
   </defs>
   <rect x="377" y="86" fill="url(#Gradient1)" width="112" height="76" stroke="#0080ff" stroke-width="1"/>
   <text x="433" y="97" fill="#000000" font-size="10" font-family="'Arial Unicode MS','Arial'" text-anchor="middle">Location</text>
   <line x1="377" x2="489" y1="103" y2="103" stroke="#0080ff" stroke-width="1"/>
   <text x="382" y="113" fill="#000000" font-size="10" font-family="'Arial Unicode MS','Arial'">-</text>
   <text x="382" y="126" fill="#000000" font-size="10" font-family="'Arial Unicode MS','Arial'">-</text>
   <text x="382" y="139" fill="#000000" font-size="10" font-family="'Arial Unicode MS','Arial'">-</text>
   <text x="393" y="113" fill="#000000" font-size="10" font-family="'Arial Unicode MS','Arial'">latitude</text>
   <text x="393" y="126" fill="#000000" font-size="10" font-family="'Arial Unicode MS','Arial'">longitude</text>
   <text x="393" y="139" fill="#000000" font-size="10" font-family="'Arial Unicode MS','Arial'">address</text>
   <text x="446" y="113" fill="#000000" font-size="10" font-family="'Arial Unicode MS','Arial'">: float</text>
   <text x="446" y="126" fill="#000000" font-size="10" font-family="'Arial Unicode MS','Arial'">: float</text>
   <text x="446" y="139" fill="#000000" font-size="10" font-family="'Arial Unicode MS','Arial'">: String</text>
   <line x1="377" x2="489" y1="146" y2="146" stroke="#0080ff" stroke-width="1"/>
   <defs>
      <linearGradient id="Gradient2" x1="0%" x2="100%" y1="0%" y2="100%" gradientUnits="objectBoundingBox">
         <stop offset="5%" stop-color="#ffffff"/>
         <stop offset="95%" stop-color="#aee4ff"/>
      </linearGradient>
   </defs>
   <rect x="288" y="4" fill="url(#Gradient2)" width="64" height="51" stroke="#0080ff" stroke-width="1"/>
   <text x="320" y="15" fill="#000000" font-size="10" font-family="'Arial Unicode MS','Arial'" text-anchor="middle">Application</text>
   <line x1="288" x2="352" y1="21" y2="21" stroke="#0080ff" stroke-width="1"/>
   <line x1="288" x2="352" y1="38" y2="38" stroke="#0080ff" stroke-width="1"/>
   <defs>
      <linearGradient id="Gradient3" x1="0%" x2="100%" y1="0%" y2="100%" gradientUnits="objectBoundingBox">
         <stop offset="5%" stop-color="#ffffff"/>
         <stop offset="95%" stop-color="#aee4ff"/>
      </linearGradient>
   </defs>
   <rect x="13" y="132" fill="url(#Gradient3)" width="253" height="89" stroke="#0080ff" stroke-width="1"/>
   <text x="139" y="143" fill="#000000" font-size="10" font-family="'Arial Unicode MS','Arial'" text-anchor="middle">User</text>
   <line x1="13" x2="266" y1="149" y2="149" stroke="#0080ff" stroke-width="1"/>
   <text x="18" y="159" fill="#000000" font-size="10" font-family="'Arial Unicode MS','Arial'">-</text>
   <text x="18" y="172" fill="#000000" font-size="10" font-family="'Arial Unicode MS','Arial'">-</text>
   <text x="18" y="185" fill="#000000" font-size="10" font-family="'Arial Unicode MS','Arial'">-</text>
   <text x="18" y="198" fill="#000000" font-size="10" font-family="'Arial Unicode MS','Arial'">-</text>
   <text x="18" y="211" fill="#000000" font-size="10" font-family="'Arial Unicode MS','Arial'">-</text>
   <text x="29" y="159" fill="#000000" font-size="10" font-family="'Arial Unicode MS','Arial'">username</text>
   <text x="29" y="172" fill="#000000" font-size="10" font-family="'Arial Unicode MS','Arial'">password</text>
   <text x="29" y="185" fill="#000000" font-size="10" font-family="'Arial Unicode MS','Arial'">registrationNumber</text>
   <text x="29" y="198" fill="#000000" font-size="10" font-family="'Arial Unicode MS','Arial'">currentNumberOfReservationViolations</text>
   <text x="29" y="211" fill="#000000" font-size="10" font-family="'Arial Unicode MS','Arial'">totalNumberOfReservationViolations</text>
   <text x="219" y="159" fill="#000000" font-size="10" font-family="'Arial Unicode MS','Arial'">: String</text>
   <text x="219" y="172" fill="#000000" font-size="10" font-family="'Arial Unicode MS','Arial'">: String</text>
   <text x="219" y="185" fill="#000000" font-size="10" font-family="'Arial Unicode MS','Arial'">: String</text>
   <text x="219" y="198" fill="#000000" font-size="10" font-family="'Arial Unicode MS','Arial'">: int</text>
   <text x="219" y="211" fill="#000000" font-size="10" font-family="'Arial Unicode MS','Arial'">: int</text>
   <line x1="13" x2="266" y1="218" y2="218" stroke="#0080ff" stroke-width="1"/>
   <defs>
      <linearGradient id="Gradient4" x1="0%" x2="100%" y1="0%" y2="100%" gradientUnits="objectBoundingBox">
         <stop offset="5%" stop-color="#ffffff"/>
         <stop offset="95%" stop-color="#aee4ff"/>
      </linearGradient>
   </defs>
   <rect x="385" y="232" fill="url(#Gradient4)" width="157" height="51" stroke="#0080ff" stroke-width="1"/>
   <text x="463" y="243" fill="#000000" font-size="10" font-family="'Arial Unicode MS','Arial'" text-anchor="middle">ParkingPlace</text>
   <line x1="385" x2="542" y1="249" y2="249" stroke="#0080ff" stroke-width="1"/>
   <text x="390" y="259" fill="#000000" font-size="10" font-family="'Arial Unicode MS','Arial'">-</text>
   <text x="401" y="259" fill="#000000" font-size="10" font-family="'Arial Unicode MS','Arial'">status</text>
   <text x="435" y="259" fill="#000000" font-size="10" font-family="'Arial Unicode MS','Arial'">: ParkingPlaceStatus</text>
   <line x1="385" x2="542" y1="266" y2="266" stroke="#0080ff" stroke-width="1"/>
   <defs>
      <linearGradient id="Gradient5" x1="0%" x2="100%" y1="0%" y2="100%" gradientUnits="objectBoundingBox">
         <stop offset="5%" stop-color="#ffffff"/>
         <stop offset="95%" stop-color="#aee4ff"/>
      </linearGradient>
   </defs>
   <rect x="541" y="16" fill="url(#Gradient5)" width="166" height="92" stroke="#0080ff" stroke-width="1"/>
   <text x="624" y="27" fill="#000000" font-size="10" font-family="'Arial Unicode MS','Arial'" text-anchor="middle">&lt;&lt;Enum&gt;&gt;</text>
   <text x="624" y="42" fill="#000000" font-size="10" font-family="'Arial Unicode MS','Arial'" text-anchor="middle">ParkingPlaceStatus</text>
   <line x1="541" x2="707" y1="48" y2="48" stroke="#0080ff" stroke-width="1"/>
   <text x="546" y="58" fill="#000000" font-size="10" font-family="'Arial Unicode MS','Arial'">-</text>
   <text x="546" y="71" fill="#000000" font-size="10" font-family="'Arial Unicode MS','Arial'">-</text>
   <text x="546" y="84" fill="#000000" font-size="10" font-family="'Arial Unicode MS','Arial'">-</text>
   <text x="557" y="58" fill="#000000" font-size="10" font-family="'Arial Unicode MS','Arial'">EMPTY</text>
   <text x="557" y="71" fill="#000000" font-size="10" font-family="'Arial Unicode MS','Arial'">RESERVED</text>
   <text x="557" y="84" fill="#000000" font-size="10" font-family="'Arial Unicode MS','Arial'">TAKEN</text>
   <text x="621" y="58" fill="#000000" font-size="10" font-family="'Arial Unicode MS','Arial'">: EnumConstant</text>
   <text x="621" y="71" fill="#000000" font-size="10" font-family="'Arial Unicode MS','Arial'">: EnumConstant</text>
   <text x="621" y="84" fill="#000000" font-size="10" font-family="'Arial Unicode MS','Arial'">: EnumConstant</text>
   <line x1="541" x2="707" y1="91" y2="91" stroke="#0080ff" stroke-width="1"/>
   <defs>
      <linearGradient id="Gradient6" x1="0%" x2="100%" y1="0%" y2="100%" gradientUnits="objectBoundingBox">
         <stop offset="5%" stop-color="#ffffff"/>
         <stop offset="95%" stop-color="#aee4ff"/>
      </linearGradient>
   </defs>
   <rect x="625" y="228" fill="url(#Gradient6)" width="93" height="50" stroke="#0080ff" stroke-width="1"/>
   <text x="671" y="239" fill="#000000" font-size="10" font-family="'Arial Unicode MS','Arial'" text-anchor="middle">Zone</text>
   <line x1="625" x2="718" y1="244" y2="244" stroke="#0080ff" stroke-width="1"/>
   <text x="629" y="254" fill="#000000" font-size="10" font-family="'Arial Unicode MS','Arial'">-</text>
   <text x="640" y="254" fill="#000000" font-size="10" font-family="'Arial Unicode MS','Arial'">name</text>
   <text x="675" y="254" fill="#000000" font-size="10" font-family="'Arial Unicode MS','Arial'">: String</text>
   <line x1="625" x2="718" y1="261" y2="261" stroke="#0080ff" stroke-width="1"/>
   <defs>
      <linearGradient id="Gradient7" x1="0%" x2="100%" y1="0%" y2="100%" gradientUnits="objectBoundingBox">
         <stop offset="5%" stop-color="#ffffff"/>
         <stop offset="95%" stop-color="#aee4ff"/>
      </linearGradient>
   </defs>
   <rect x="173" y="281" fill="url(#Gradient7)" width="128" height="64" stroke="#0080ff" stroke-width="1"/>
   <text x="237" y="292" fill="#000000" font-size="10" font-family="'Arial Unicode MS','Arial'" text-anchor="middle">Reservation</text>
   <line x1="173" x2="301" y1="298" y2="298" stroke="#0080ff" stroke-width="1"/>
   <text x="178" y="308" fill="#000000" font-size="10" font-family="'Arial Unicode MS','Arial'">-</text>
   <text x="178" y="321" fill="#000000" font-size="10" font-family="'Arial Unicode MS','Arial'">-</text>
   <text x="189" y="308" fill="#000000" font-size="10" font-family="'Arial Unicode MS','Arial'">startDateTime</text>
   <text x="189" y="321" fill="#000000" font-size="10" font-family="'Arial Unicode MS','Arial'">endDateTime</text>
   <text x="263" y="308" fill="#000000" font-size="10" font-family="'Arial Unicode MS','Arial'">: Date</text>
   <text x="263" y="321" fill="#000000" font-size="10" font-family="'Arial Unicode MS','Arial'">: Date</text>
   <line x1="173" x2="301" y1="328" y2="328" stroke="#0080ff" stroke-width="1"/>
   <defs>
      <linearGradient id="Gradient8" x1="0%" x2="100%" y1="0%" y2="100%" gradientUnits="objectBoundingBox">
         <stop offset="5%" stop-color="#ffffff"/>
         <stop offset="95%" stop-color="#aee4ff"/>
      </linearGradient>
   </defs>
   <rect x="375" y="351" fill="url(#Gradient8)" width="158" height="77" stroke="#0080ff" stroke-width="1"/>
   <text x="454" y="362" fill="#000000" font-size="10" font-family="'Arial Unicode MS','Arial'" text-anchor="middle">PaidParkingPlace</text>
   <line x1="375" x2="533" y1="368" y2="368" stroke="#0080ff" stroke-width="1"/>
   <text x="379" y="378" fill="#000000" font-size="10" font-family="'Arial Unicode MS','Arial'">-</text>
   <text x="379" y="391" fill="#000000" font-size="10" font-family="'Arial Unicode MS','Arial'">-</text>
   <text x="379" y="404" fill="#000000" font-size="10" font-family="'Arial Unicode MS','Arial'">-</text>
   <text x="390" y="378" fill="#000000" font-size="10" font-family="'Arial Unicode MS','Arial'">startDateTime</text>
   <text x="390" y="391" fill="#000000" font-size="10" font-family="'Arial Unicode MS','Arial'">ticketType</text>
   <text x="390" y="404" fill="#000000" font-size="10" font-family="'Arial Unicode MS','Arial'">arrogantUser</text>
   <text x="464" y="378" fill="#000000" font-size="10" font-family="'Arial Unicode MS','Arial'">: Date</text>
   <text x="464" y="391" fill="#000000" font-size="10" font-family="'Arial Unicode MS','Arial'">: TicketType</text>
   <text x="464" y="404" fill="#000000" font-size="10" font-family="'Arial Unicode MS','Arial'">: boolean</text>
   <line x1="375" x2="533" y1="411" y2="411" stroke="#0080ff" stroke-width="1"/>
   <defs>
      <linearGradient id="Gradient9" x1="0%" x2="100%" y1="0%" y2="100%" gradientUnits="objectBoundingBox">
         <stop offset="5%" stop-color="#ffffff"/>
         <stop offset="95%" stop-color="#aee4ff"/>
      </linearGradient>
   </defs>
   <rect x="543" y="119" fill="url(#Gradient9)" width="160" height="92" stroke="#0080ff" stroke-width="1"/>
   <text x="623" y="130" fill="#000000" font-size="10" font-family="'Arial Unicode MS','Arial'" text-anchor="middle">&lt;&lt;Enum&gt;&gt;</text>
   <text x="623" y="145" fill="#000000" font-size="10" font-family="'Arial Unicode MS','Arial'" text-anchor="middle">TicketType</text>
   <line x1="543" x2="703" y1="151" y2="151" stroke="#0080ff" stroke-width="1"/>
   <text x="548" y="161" fill="#000000" font-size="10" font-family="'Arial Unicode MS','Arial'">-</text>
   <text x="548" y="174" fill="#000000" font-size="10" font-family="'Arial Unicode MS','Arial'">-</text>
   <text x="548" y="187" fill="#000000" font-size="10" font-family="'Arial Unicode MS','Arial'">-</text>
   <text x="559" y="161" fill="#000000" font-size="10" font-family="'Arial Unicode MS','Arial'">REGULAR</text>
   <text x="559" y="174" fill="#000000" font-size="10" font-family="'Arial Unicode MS','Arial'">MONTHLY</text>
   <text x="559" y="187" fill="#000000" font-size="10" font-family="'Arial Unicode MS','Arial'">YEARLY</text>
   <text x="618" y="161" fill="#000000" font-size="10" font-family="'Arial Unicode MS','Arial'">: EnumConstant</text>
   <text x="618" y="174" fill="#000000" font-size="10" font-family="'Arial Unicode MS','Arial'">: EnumConstant</text>
   <text x="618" y="187" fill="#000000" font-size="10" font-family="'Arial Unicode MS','Arial'">: EnumConstant</text>
   <line x1="543" x2="703" y1="194" y2="194" stroke="#0080ff" stroke-width="1"/>
   <defs>
      <linearGradient id="Gradient10" x1="0%" x2="100%" y1="0%" y2="100%" gradientUnits="objectBoundingBox">
         <stop offset="5%" stop-color="#ffffff"/>
         <stop offset="95%" stop-color="#aee4ff"/>
      </linearGradient>
   </defs>
   <rect x="581" y="346" fill="url(#Gradient10)" width="140" height="77" stroke="#0080ff" stroke-width="1"/>
   <text x="651" y="357" fill="#000000" font-size="10" font-family="'Arial Unicode MS','Arial'" text-anchor="middle">TicketPrice</text>
   <line x1="581" x2="721" y1="363" y2="363" stroke="#0080ff" stroke-width="1"/>
   <text x="586" y="373" fill="#000000" font-size="10" font-family="'Arial Unicode MS','Arial'">-</text>
   <text x="586" y="386" fill="#000000" font-size="10" font-family="'Arial Unicode MS','Arial'">-</text>
   <text x="586" y="399" fill="#000000" font-size="10" font-family="'Arial Unicode MS','Arial'">-</text>
   <text x="597" y="373" fill="#000000" font-size="10" font-family="'Arial Unicode MS','Arial'">duration</text>
   <text x="597" y="386" fill="#000000" font-size="10" font-family="'Arial Unicode MS','Arial'">ticketType</text>
   <text x="597" y="399" fill="#000000" font-size="10" font-family="'Arial Unicode MS','Arial'">price</text>
   <text x="653" y="373" fill="#000000" font-size="10" font-family="'Arial Unicode MS','Arial'">: int</text>
   <text x="653" y="386" fill="#000000" font-size="10" font-family="'Arial Unicode MS','Arial'">: TicketType</text>
   <text x="653" y="399" fill="#000000" font-size="10" font-family="'Arial Unicode MS','Arial'">: float</text>
   <line x1="581" x2="721" y1="406" y2="406" stroke="#0080ff" stroke-width="1"/>
   <defs>
      <linearGradient id="Gradient11" x1="0%" x2="100%" y1="0%" y2="100%" gradientUnits="objectBoundingBox">
         <stop offset="5%" stop-color="#ffffff"/>
         <stop offset="95%" stop-color="#aee4ff"/>
      </linearGradient>
   </defs>
   <rect x="99" y="451" fill="url(#Gradient11)" width="172" height="90" stroke="#0080ff" stroke-width="1"/>
   <text x="185" y="462" fill="#000000" font-size="10" font-family="'Arial Unicode MS','Arial'" text-anchor="middle">Punishment</text>
   <line x1="99" x2="271" y1="468" y2="468" stroke="#0080ff" stroke-width="1"/>
   <text x="104" y="478" fill="#000000" font-size="10" font-family="'Arial Unicode MS','Arial'">-</text>
   <text x="104" y="491" fill="#000000" font-size="10" font-family="'Arial Unicode MS','Arial'">-</text>
   <text x="104" y="504" fill="#000000" font-size="10" font-family="'Arial Unicode MS','Arial'">-</text>
   <text x="104" y="517" fill="#000000" font-size="10" font-family="'Arial Unicode MS','Arial'">-</text>
   <text x="115" y="478" fill="#000000" font-size="10" font-family="'Arial Unicode MS','Arial'">type</text>
   <text x="115" y="491" fill="#000000" font-size="10" font-family="'Arial Unicode MS','Arial'">description</text>
   <text x="115" y="504" fill="#000000" font-size="10" font-family="'Arial Unicode MS','Arial'">duration</text>
   <text x="115" y="517" fill="#000000" font-size="10" font-family="'Arial Unicode MS','Arial'">dateTime</text>
   <text x="174" y="478" fill="#000000" font-size="10" font-family="'Arial Unicode MS','Arial'">: PunishmentType</text>
   <text x="174" y="491" fill="#000000" font-size="10" font-family="'Arial Unicode MS','Arial'">: String</text>
   <text x="174" y="504" fill="#000000" font-size="10" font-family="'Arial Unicode MS','Arial'">: int</text>
   <text x="174" y="517" fill="#000000" font-size="10" font-family="'Arial Unicode MS','Arial'">: Date</text>
   <line x1="99" x2="271" y1="524" y2="524" stroke="#0080ff" stroke-width="1"/>
   <defs>
      <linearGradient id="Gradient12" x1="0%" x2="100%" y1="0%" y2="100%" gradientUnits="objectBoundingBox">
         <stop offset="5%" stop-color="#ffffff"/>
         <stop offset="95%" stop-color="#aee4ff"/>
      </linearGradient>
   </defs>
   <rect x="305" y="460" fill="url(#Gradient12)" width="184" height="78" stroke="#0080ff" stroke-width="1"/>
   <text x="397" y="471" fill="#000000" font-size="10" font-family="'Arial Unicode MS','Arial'" text-anchor="middle">&lt;&lt;Enum&gt;&gt;</text>
   <text x="397" y="486" fill="#000000" font-size="10" font-family="'Arial Unicode MS','Arial'" text-anchor="middle">PunishmentType</text>
   <line x1="305" x2="489" y1="492" y2="492" stroke="#0080ff" stroke-width="1"/>
   <text x="310" y="502" fill="#000000" font-size="10" font-family="'Arial Unicode MS','Arial'">-</text>
   <text x="310" y="515" fill="#000000" font-size="10" font-family="'Arial Unicode MS','Arial'">-</text>
   <text x="321" y="502" fill="#000000" font-size="10" font-family="'Arial Unicode MS','Arial'">RESERVATION</text>
   <text x="321" y="515" fill="#000000" font-size="10" font-family="'Arial Unicode MS','Arial'">PARKING</text>
   <text x="403" y="502" fill="#000000" font-size="10" font-family="'Arial Unicode MS','Arial'">: EnumConstant</text>
   <text x="403" y="515" fill="#000000" font-size="10" font-family="'Arial Unicode MS','Arial'">: EnumConstant</text>
   <line x1="305" x2="489" y1="522" y2="522" stroke="#0080ff" stroke-width="1"/>
   <defs>
      <linearGradient id="Gradient13" x1="0%" x2="100%" y1="0%" y2="100%" gradientUnits="objectBoundingBox">
         <stop offset="5%" stop-color="#ffffff"/>
         <stop offset="95%" stop-color="#aee4ff"/>
      </linearGradient>
   </defs>
   <rect x="43" y="2" fill="url(#Gradient13)" width="159" height="64" stroke="#0080ff" stroke-width="1"/>
   <text x="122" y="13" fill="#000000" font-size="10" font-family="'Arial Unicode MS','Arial'" text-anchor="middle">Notification</text>
   <line x1="43" x2="202" y1="19" y2="19" stroke="#0080ff" stroke-width="1"/>
   <text x="47" y="29" fill="#000000" font-size="10" font-family="'Arial Unicode MS','Arial'">-</text>
   <text x="47" y="42" fill="#000000" font-size="10" font-family="'Arial Unicode MS','Arial'">-</text>
   <text x="47" y="55" fill="#000000" font-size="10" font-family="'Arial Unicode MS','Arial'">-</text>
   <text x="58" y="29" fill="#000000" font-size="10" font-family="'Arial Unicode MS','Arial'">title</text>
   <text x="58" y="42" fill="#000000" font-size="10" font-family="'Arial Unicode MS','Arial'">text</text>
   <text x="58" y="55" fill="#000000" font-size="10" font-family="'Arial Unicode MS','Arial'">dateTime</text>
   <text x="112" y="29" fill="#000000" font-size="10" font-family="'Arial Unicode MS','Arial'">: String</text>
   <text x="112" y="42" fill="#000000" font-size="10" font-family="'Arial Unicode MS','Arial'">: String</text>
   <text x="112" y="55" fill="#000000" font-size="10" font-family="'Arial Unicode MS','Arial'">: Date</text>
   <line x1="43" x2="202" y1="62" y2="62" stroke="#0080ff" stroke-width="1"/>
</svg>
